<svg xmlns="http://www.w3.org/2000/svg" width="24" height="24" fill="none"><path fill="#8E8E92" d="M15.253 2a2.25 2.25 0 0 1 2.236 2h1.268a1.75 1.75 0 0 1 1.744 1.606l.006.144v3a3.25 3.25 0 0 1-3.066 3.245l-.21.006a5.758 5.758 0 0 1-4.73 3.95l-.002 1.549h1.754a3.25 3.25 0 0 1 3.245 3.066l.005.184v.5a.75.75 0 0 1-.648.743l-.102.007H6.75a.75.75 0 0 1-.743-.648L6 21.25v-.5a3.25 3.25 0 0 1 3.066-3.245l.184-.005H11v-1.549a5.758 5.758 0 0 1-4.728-3.95L6.246 12a3.25 3.25 0 0 1-3.25-3.25v-3c0-.966.783-1.75 1.75-1.75h1.268A2.25 2.25 0 0 1 8.25 2h7.003zm-1 17H9.25a1.75 1.75 0 0 0-1.705 1.352l-.027.148h8.467a1.75 1.75 0 0 0-1.578-1.493L14.253 19zm1-15.5H8.25a.75.75 0 0 0-.75.75v5.998a4.252 4.252 0 0 0 8.503 0V4.25a.75.75 0 0 0-.75-.75zm3.504 2h-1.254v4.983A1.75 1.75 0 0 0 19 8.904l.007-.154v-3a.25.25 0 0 0-.193-.243l-.057-.007zM6 5.5H4.746a.25.25 0 0 0-.25.25v3A1.75 1.75 0 0 0 6 10.483V5.5z"/></svg>