
<svg xmlns="http://www.w3.org/2000/svg" width="24" height="24" fill="none"><path fill="currentColor" d="M5.843 4.568a8.707 8.707 0 1 1 12.314 12.314l-1.187 1.174a623.31 623.31 0 0 1-3.406 3.312 2.25 2.25 0 0 1-3.128 0l-3.491-3.396c-.439-.43-.806-.794-1.102-1.09a8.707 8.707 0 0 1 0-12.314zM17.096 5.63A7.207 7.207 0 1 0 6.904 15.822l1.487 1.467c.819.801 1.848 1.802 3.088 3a.75.75 0 0 0 1.043.001l3.394-3.302c.47-.46.863-.849 1.18-1.166a7.207 7.207 0 0 0 0-10.193zM12 7.999a3.002 3.002 0 1 1 0 6.003A3.002 3.002 0 0 1 12 8zm0 1.5a1.501 1.501 0 1 0 0 3.003 1.501 1.501 0 0 0 0-3.003z"/></svg>