<svg xmlns="http://www.w3.org/2000/svg" width="108" height="23" fill="none"><path fill="currentColor" d="M61.522 15.786h2.169V7.87h-2.17v7.915zm0-9.15h2.169V4.755h-2.17v1.883zm3.566 11.742h2.169V14.89h.031c.463.679 1.212 1.126 2.36 1.126 2.105 0 3.54-1.62 3.54-4.18 0-2.47-1.387-4.182-3.556-4.182-1.116 0-1.881.51-2.407 1.203h-.048V7.87h-2.089v10.507zm4.098-4.104c-1.292 0-1.977-.941-1.977-2.376 0-1.42.542-2.546 1.897-2.546 1.34 0 1.882 1.05 1.882 2.546 0 1.496-.702 2.376-1.802 2.376zm8.328 1.743c2.041 0 3.445-.956 3.445-2.545 0-1.852-1.515-2.222-2.887-2.5-1.164-.231-2.248-.293-2.248-.972 0-.57.558-.88 1.403-.88.925 0 1.483.31 1.579 1.158h1.961c-.16-1.59-1.355-2.623-3.508-2.623-1.866 0-3.332.818-3.332 2.53 0 1.728 1.435 2.114 2.902 2.392 1.116.216 2.152.293 2.152 1.049 0 .555-.542.91-1.498.91-.973 0-1.643-.401-1.786-1.311h-2.01c.128 1.681 1.452 2.792 3.827 2.792zm11.678-.231V7.87h-2.169v4.567c0 1.049-.622 1.79-1.642 1.79-.925 0-1.355-.51-1.355-1.435V7.87h-2.153v5.276c0 1.728 1.02 2.855 2.838 2.855 1.149 0 1.786-.417 2.344-1.142h.048v.926h2.089zm1.403 0h2.168v-4.598c0-1.05.59-1.728 1.468-1.728.797 0 1.26.463 1.26 1.358v4.968h2.168v-4.598c0-1.05.558-1.728 1.467-1.728.797 0 1.26.463 1.26 1.358v4.968h2.168v-5.323c0-1.728-.973-2.808-2.695-2.808-1.036 0-1.897.524-2.456 1.388h-.031c-.399-.833-1.228-1.388-2.265-1.388-1.132 0-1.929.555-2.375 1.28h-.048V7.871h-2.09v7.915zM5 15.786h2.169V4.754H5v11.032zm7.471.231c2.536 0 4.274-1.82 4.274-4.18 0-2.362-1.738-4.182-4.274-4.182-2.535 0-4.273 1.82-4.273 4.181 0 2.36 1.738 4.181 4.273 4.181zm0-1.604c-1.34 0-2.073-1.034-2.073-2.577s.734-2.592 2.073-2.592c1.324 0 2.073 1.05 2.073 2.592 0 1.543-.75 2.577-2.073 2.577zm8.885 4.073c1.212 0 2.265-.278 2.95-.895.606-.54.973-1.296.973-2.407V7.871H23.19v.833h-.032c-.494-.663-1.244-1.05-2.264-1.05-2.073 0-3.54 1.513-3.54 3.873 0 2.392 1.786 3.78 3.604 3.78 1.036 0 1.658-.4 2.136-.925h.048v.864c0 1.08-.59 1.65-1.817 1.65-1.005 0-1.468-.385-1.643-.879H17.53c.224 1.543 1.595 2.469 3.827 2.469zm-.032-4.86c-1.116 0-1.85-.787-1.85-2.13 0-1.326.734-2.16 1.834-2.16 1.308 0 1.946.988 1.946 2.145 0 1.173-.558 2.145-1.93 2.145zm9.226 2.391c2.536 0 4.274-1.82 4.274-4.18 0-2.362-1.738-4.182-4.274-4.182-2.535 0-4.273 1.82-4.273 4.181 0 2.36 1.738 4.181 4.273 4.181zm0-1.604c-1.34 0-2.073-1.034-2.073-2.577s.734-2.592 2.073-2.592c1.324 0 2.073 1.05 2.073 2.592 0 1.543-.75 2.577-2.073 2.577z"/><path fill="currentColor" fill-rule="evenodd" d="M47.975 2.5c5.137 0 9.302 4.03 9.302 9s-4.165 9-9.302 9-9.301-4.03-9.301-9 4.164-9 9.301-9zm-.336.673c-1.061.145-2.072.97-2.856 2.35a9.25 9.25 0 0 0-.612 1.32 16.055 16.055 0 0 1 3.468-.436V3.173zM43.385 7.06c.223-.676.495-1.297.809-1.85.389-.684.85-1.274 1.37-1.728-2.827.794-5.056 2.95-5.877 5.686.47-.503 1.08-.95 1.787-1.326a10.934 10.934 0 0 1 1.911-.782zm-.223.76a14.595 14.595 0 0 0-.45 3.356H39.37c.149-1.027 1.002-2.005 2.428-2.764.413-.22.87-.418 1.364-.592zm.222 3.356c.028-1.299.22-2.517.54-3.594a15.096 15.096 0 0 1 3.715-.523v1.405a4.872 4.872 0 0 1-2.803 2.712h-1.452zm-.673.65H39.37c.149 1.027 1.002 2.005 2.428 2.764.413.22.87.418 1.364.591a14.595 14.595 0 0 1-.45-3.355zm1.214 3.594a13.735 13.735 0 0 1-.541-3.594h1.452a4.872 4.872 0 0 1 2.803 2.712v1.405a15.094 15.094 0 0 1-3.715-.523zm-.54.522a10.93 10.93 0 0 1-1.911-.782c-.707-.377-1.318-.823-1.787-1.326.822 2.735 3.05 4.892 5.877 5.686-.52-.454-.981-1.044-1.37-1.728a10.218 10.218 0 0 1-.809-1.85zm4.254 3.885c-1.061-.144-2.072-.969-2.856-2.349a9.228 9.228 0 0 1-.612-1.32c1.067.26 2.239.413 3.468.436v3.233zm2.747-.307c.52-.454.982-1.044 1.37-1.728.315-.553.587-1.174.81-1.85.697-.215 1.34-.478 1.91-.782.708-.377 1.318-.823 1.787-1.326-.821 2.735-3.05 4.892-5.877 5.686zm1.393-3.362a9.25 9.25 0 0 1-.612 1.32c-.784 1.38-1.794 2.205-2.855 2.35v-3.234a16.056 16.056 0 0 0 3.467-.436zm1.01-.976c.493-.174.95-.372 1.364-.592 1.426-.76 2.279-1.737 2.428-2.764h-3.342a14.611 14.611 0 0 1-.45 3.356zm-.222-3.356a13.726 13.726 0 0 1-.541 3.594 15.09 15.09 0 0 1-3.715.523v-1.404a4.872 4.872 0 0 1 2.804-2.713h1.452zm.672-.65h3.342c-.15-1.027-1.002-2.005-2.428-2.764a9.842 9.842 0 0 0-1.364-.592c.267 1.032.426 2.166.45 3.356zM52.026 7.58c.32 1.077.513 2.295.54 3.594h-1.451a4.872 4.872 0 0 1-2.803-2.713V7.058c1.341.026 2.601.213 3.714.523zm.54-.522c.697.215 1.34.478 1.91.782.708.377 1.318.823 1.787 1.326-.821-2.735-3.05-4.892-5.877-5.686.52.454.982 1.044 1.37 1.728.315.553.587 1.174.81 1.85zM48.31 3.173c1.062.145 2.072.97 2.856 2.35.228.4.433.842.612 1.32a16.057 16.057 0 0 0-3.468-.436V3.173z" clip-rule="evenodd"/></svg>