<svg xmlns="http://www.w3.org/2000/svg" width="108" height="23" fill="none"><g fill="currentColor" clip-path="url(#a)"><path d="M16.27 16.418h5.618L7.97 2.5H2.352L16.27 16.418zM10.857 2.5l13.416 13.417V2.5h-3.63v4.236L16.407 2.5h-5.55zM0 2.966v13.452h3.63v-4.236l4.237 4.236h5.585L0 2.966zm33.035 11.359h3.253v1.917h-5.736V6.047h2.483v8.278zm7.691 2.033c-.794 0-1.51-.17-2.15-.508a3.783 3.783 0 0 1-1.495-1.452c-.359-.63-.538-1.365-.538-2.208 0-.832.184-1.563.552-2.193a3.732 3.732 0 0 1 1.51-1.467c.64-.338 1.356-.508 2.15-.508.794 0 1.51.17 2.15.508a3.732 3.732 0 0 1 1.51 1.467c.368.63.552 1.36.552 2.193s-.19 1.569-.567 2.208a3.734 3.734 0 0 1-1.525 1.452c-.639.339-1.355.508-2.15.508zm0-2.15c.474 0 .876-.173 1.205-.522.34-.348.509-.847.509-1.496s-.165-1.147-.494-1.496a1.55 1.55 0 0 0-1.191-.523 1.57 1.57 0 0 0-1.206.523c-.319.34-.479.838-.479 1.496 0 .649.155 1.148.465 1.496.32.349.717.523 1.19.523zm8.201-6.186c.572 0 1.07.116 1.496.349.436.232.77.537 1.002.915V8.138h2.484v8.09c0 .745-.15 1.418-.45 2.018a3.313 3.313 0 0 1-1.351 1.453c-.6.358-1.35.537-2.251.537-1.2 0-2.174-.286-2.92-.857-.745-.561-1.17-1.326-1.277-2.295h2.454c.078.31.262.552.552.727.29.184.649.276 1.075.276.513 0 .92-.15 1.22-.45.31-.291.464-.76.464-1.41V15.08a2.816 2.816 0 0 1-1.002.93c-.426.232-.924.348-1.496.348-.668 0-1.273-.17-1.815-.508-.542-.348-.973-.837-1.293-1.467-.31-.639-.464-1.375-.464-2.207 0-.833.155-1.564.465-2.193.319-.63.75-1.114 1.292-1.453a3.355 3.355 0 0 1 1.815-.508zm2.498 4.168c0-.62-.174-1.108-.522-1.467a1.652 1.652 0 0 0-1.25-.537c-.493 0-.914.18-1.263.537-.339.349-.508.833-.508 1.453 0 .62.17 1.113.508 1.481a1.7 1.7 0 0 0 1.264.537c.493 0 .91-.179 1.248-.537.349-.358.523-.847.523-1.467zm7.534 4.168c-.794 0-1.51-.17-2.15-.508a3.783 3.783 0 0 1-1.496-1.452c-.358-.63-.537-1.365-.537-2.208 0-.832.184-1.563.552-2.193a3.731 3.731 0 0 1 1.51-1.467c.64-.338 1.356-.508 2.15-.508.794 0 1.51.17 2.149.508a3.73 3.73 0 0 1 1.51 1.467c.368.63.552 1.36.552 2.193s-.189 1.569-.566 2.208a3.735 3.735 0 0 1-1.525 1.452c-.64.339-1.356.508-2.15.508zm0-2.15c.474 0 .876-.173 1.205-.522.339-.348.508-.847.508-1.496s-.164-1.147-.494-1.496a1.55 1.55 0 0 0-1.19-.523 1.57 1.57 0 0 0-1.206.523c-.32.34-.48.838-.48 1.496 0 .649.156 1.148.466 1.496.32.349.716.523 1.19.523zm6.371-6.912c-.436 0-.794-.126-1.075-.378a1.28 1.28 0 0 1-.406-.958c0-.387.135-.707.406-.959.281-.261.64-.392 1.075-.392.426 0 .775.131 1.046.392.28.252.42.572.42.959 0 .378-.14.697-.42.958-.271.252-.62.378-1.046.378zm1.234.842v8.104h-2.483V8.138h2.483zm3.848 1.148a2.701 2.701 0 0 1 1.002-.915c.426-.233.925-.349 1.496-.349.668 0 1.273.17 1.815.508.543.34.969.823 1.278 1.453.32.63.48 1.36.48 2.193 0 .832-.16 1.568-.48 2.207-.31.63-.735 1.119-1.278 1.467a3.353 3.353 0 0 1-1.815.508c-.561 0-1.06-.116-1.496-.348a2.749 2.749 0 0 1-1.002-.9v4.995h-2.484V8.138h2.484v1.148zm3.544 2.89c0-.62-.175-1.104-.523-1.453a1.67 1.67 0 0 0-1.264-.537 1.7 1.7 0 0 0-1.263.537c-.339.359-.508.848-.508 1.467 0 .62.17 1.109.508 1.467.348.358.77.537 1.263.537a1.7 1.7 0 0 0 1.264-.537c.348-.368.523-.862.523-1.481zm6.69 4.182c-.707 0-1.335-.12-1.887-.363-.552-.242-.988-.571-1.307-.987-.32-.426-.5-.9-.538-1.424h2.455c.029.281.16.509.392.683.232.174.518.261.857.261.31 0 .546-.058.711-.174a.57.57 0 0 0 .262-.48c0-.232-.122-.4-.363-.507-.243-.117-.635-.243-1.177-.378a11.968 11.968 0 0 1-1.452-.421 2.61 2.61 0 0 1-1.002-.712c-.28-.329-.421-.77-.421-1.321 0-.465.125-.886.377-1.264.261-.387.64-.692 1.133-.915.504-.223 1.099-.334 1.786-.334 1.017 0 1.816.252 2.396.755.591.504.93 1.172 1.017 2.005h-2.294a.982.982 0 0 0-.378-.669c-.203-.164-.475-.246-.813-.246-.29 0-.513.058-.669.174a.515.515 0 0 0-.231.45c0 .232.12.407.362.523.252.116.64.232 1.162.348.6.155 1.09.31 1.467.465.377.145.707.387.987.726.291.33.441.775.45 1.336 0 .475-.135.9-.406 1.278-.262.368-.644.659-1.147.872-.494.213-1.07.32-1.729.32zm12.368-8.22v8.104h-2.483v-1.104a2.772 2.772 0 0 1-1.03.872c-.427.213-.901.32-1.424.32-.62 0-1.167-.136-1.641-.407a2.836 2.836 0 0 1-1.104-1.206c-.261-.523-.392-1.137-.392-1.844V8.138h2.469v4.4c0 .543.14.964.42 1.264.282.3.66.45 1.134.45.484 0 .866-.15 1.147-.45.281-.3.421-.721.421-1.263v-4.4h2.483zm11.689-.087c1.007 0 1.806.305 2.396.915.601.61.901 1.457.901 2.542v4.734h-2.469v-4.4c0-.523-.14-.925-.421-1.206-.272-.29-.649-.435-1.133-.435s-.867.145-1.148.435c-.27.281-.406.683-.406 1.206v4.4h-2.47v-4.4c0-.523-.139-.925-.42-1.206-.271-.29-.649-.435-1.133-.435s-.866.145-1.148.435c-.27.281-.406.683-.406 1.206v4.4h-2.483V8.138h2.483v1.017c.252-.339.58-.605.988-.799a3.043 3.043 0 0 1 1.38-.305c.61 0 1.152.131 1.626.392.484.262.861.635 1.133 1.119a3.266 3.266 0 0 1 1.147-1.09 3.1 3.1 0 0 1 1.583-.42z"/></g><defs><clipPath id="a"><path fill="#fff" d="M0 0h108v23H0z"/></clipPath></defs></svg>