
<svg xmlns="http://www.w3.org/2000/svg" width="108" height="23" fill="none"><path fill="currentColor" d="M12.5 20.919h19.368V2.081H12.5v18.838zM28.14 9.687h-4.093v-3.98h4.093v3.98zm-11.913-3.98h4.095v7.606h7.818v3.98H16.227V5.707zM44.48 2.08a9.879 9.879 0 0 0-5.38 1.587 9.48 9.48 0 0 0-3.567 4.227 9.18 9.18 0 0 0-.551 5.443 9.343 9.343 0 0 0 2.65 4.822 9.77 9.77 0 0 0 4.958 2.578 9.938 9.938 0 0 0 5.595-.536 9.631 9.631 0 0 0 4.346-3.47 9.237 9.237 0 0 0 1.633-5.232 9.301 9.301 0 0 0-2.84-6.657A9.835 9.835 0 0 0 44.48 2.08zm0 15.212c-1.178 0-2.33-.34-3.31-.976a5.83 5.83 0 0 1-2.193-2.6 5.646 5.646 0 0 1-.339-3.347 5.746 5.746 0 0 1 1.63-2.966 6.01 6.01 0 0 1 3.05-1.586 6.112 6.112 0 0 1 3.441.33 5.923 5.923 0 0 1 2.673 2.133 5.68 5.68 0 0 1 1.004 3.219 5.723 5.723 0 0 1-1.747 4.094 6.05 6.05 0 0 1-4.21 1.7zM88.817 2.081a9.878 9.878 0 0 0-5.38 1.587 9.48 9.48 0 0 0-3.567 4.227 9.18 9.18 0 0 0-.552 5.442 9.342 9.342 0 0 0 2.65 4.823 9.77 9.77 0 0 0 4.959 2.578 9.938 9.938 0 0 0 5.595-.536 9.63 9.63 0 0 0 4.346-3.469A9.233 9.233 0 0 0 98.5 11.5a9.301 9.301 0 0 0-2.84-6.657 9.835 9.835 0 0 0-6.843-2.762zm0 15.212c-1.178 0-2.33-.34-3.31-.976a5.831 5.831 0 0 1-2.193-2.6 5.646 5.646 0 0 1-.34-3.347 5.746 5.746 0 0 1 1.63-2.966 6.01 6.01 0 0 1 3.05-1.586 6.11 6.11 0 0 1 3.441.33 5.923 5.923 0 0 1 2.674 2.133 5.685 5.685 0 0 1 1.003 3.219 5.721 5.721 0 0 1-1.747 4.094 6.049 6.049 0 0 1-4.208 1.7zM66.647 2.081a9.878 9.878 0 0 0-5.38 1.587 9.48 9.48 0 0 0-3.566 4.227 9.18 9.18 0 0 0-.55 5.443 9.342 9.342 0 0 0 2.65 4.822 9.77 9.77 0 0 0 4.958 2.578 9.938 9.938 0 0 0 5.595-.536 9.63 9.63 0 0 0 4.346-3.47 9.237 9.237 0 0 0 1.632-5.232 9.302 9.302 0 0 0-2.84-6.657 9.835 9.835 0 0 0-6.844-2.762zm0 15.212a6.082 6.082 0 0 1-3.11-.85 5.859 5.859 0 0 1-2.195-2.306 5.66 5.66 0 0 1 .476-6.031 5.932 5.932 0 0 1 2.533-1.952 6.11 6.11 0 0 1 3.207-.379 6.034 6.034 0 0 1 2.939 1.306 5.788 5.788 0 0 1 1.805 2.606h-5.654v3.626h5.654a5.814 5.814 0 0 1-2.166 2.878 6.077 6.077 0 0 1-3.488 1.102z"/></svg>