<svg xmlns="http://www.w3.org/2000/svg" width="108" height="23" fill="none"><path fill="currentColor" fill-rule="evenodd" d="m15.633 3.446 1.295-2.381 3.672 2.25-1.295 2.381c-.227.418.113.926.559.834l2.481-.508.803 4.42-2.481.507c-4.014.822-7.078-3.745-5.034-7.503zM13.35 19.554l-1.439 2.381-4.08-2.25 1.44-2.381c.252-.418-.126-.925-.622-.834l-2.757.508L5 12.558l2.757-.507c4.46-.822 7.864 3.745 5.594 7.503zm0-16.108-1.44-2.381-4.08 2.25 1.44 2.381c.252.418-.126.926-.622.834l-2.757-.508L5 10.442l2.756.507c4.46.822 7.865-3.745 5.594-7.503zm2.284 16.108 1.294 2.381 3.672-2.25-1.295-2.381c-.227-.418.113-.925.56-.834l2.48.508.803-4.42-2.481-.507c-4.014-.822-7.077 3.745-5.034 7.503z" clip-rule="evenodd"/><path fill="currentColor" d="M90.546 16.875v-4.53c0-.628.143-1.191.429-1.69A3.115 3.115 0 0 1 92.23 9.46c.541-.289 1.186-.433 1.935-.433.349-.003.697.042 1.034.134.315.08.6.195.857.344.266.14.492.31.68.508h.029c.2-.202.43-.373.68-.508a3.54 3.54 0 0 1 .871-.344 3.926 3.926 0 0 1 1.05-.134c.747 0 1.392.144 1.934.433.542.29.96.688 1.256 1.197a3.24 3.24 0 0 1 .443 1.69v4.53h-2.305V12.42c0-.25-.064-.473-.191-.673a1.42 1.42 0 0 0-.488-.508 1.309 1.309 0 0 0-.71-.195c-.265 0-.507.065-.723.195-.202.125-.37.3-.487.508a1.29 1.29 0 0 0-.178.673v4.455h-2.29V12.42c0-.25-.064-.473-.192-.673a1.37 1.37 0 0 0-.502-.508 1.308 1.308 0 0 0-.71-.195 1.38 1.38 0 0 0-.723.195c-.202.125-.37.3-.488.508a1.3 1.3 0 0 0-.177.673v4.455h-2.29zm-5.008.18c-.777 0-1.453-.15-2.023-.449a3.345 3.345 0 0 1-1.3-1.24 3.433 3.433 0 0 1-.459-1.75v-4.41h2.29v4.35c0 .27.064.519.192.748.128.219.3.398.517.538.227.13.483.195.769.195.275 0 .521-.066.738-.195.227-.14.404-.32.532-.538a1.51 1.51 0 0 0 .192-.748v-4.35h2.29v4.41c0 .638-.148 1.221-.444 1.75a3.233 3.233 0 0 1-1.284 1.24c-.552.3-1.222.449-2.01.449zm-11.157-.18v-1.838h3.649a.58.58 0 0 0 .266-.06.598.598 0 0 0 .191-.195.5.5 0 0 0-.191-.703.486.486 0 0 0-.266-.074H76.7a3.63 3.63 0 0 1-1.344-.24 2.14 2.14 0 0 1-.946-.777c-.226-.359-.34-.822-.34-1.39 0-.44.104-.838.31-1.197a2.52 2.52 0 0 1 .872-.867 2.383 2.383 0 0 1 1.227-.329h3.648v1.854h-3.294a.507.507 0 0 0-.354.135.448.448 0 0 0-.134.329c0 .14.045.259.134.359a.504.504 0 0 0 .354.134h1.3c.551 0 1.024.085 1.418.254.404.16.714.419.931.778.227.359.34.822.34 1.39 0 .449-.113.858-.34 1.226-.215.367-.52.671-.887.882-.364.22-.777.33-1.24.33H74.38zm-4.989-7.849c.64 0 1.206.104 1.699.314.483.187.918.483 1.27.867.36.376.636.824.813 1.316a4.69 4.69 0 0 1 .28 1.66c0 .757-.157 1.43-.472 2.018a3.43 3.43 0 0 1-1.27 1.36c-.542.33-1.173.494-1.891.494-.306 0-.596-.04-.872-.12a2.78 2.78 0 0 1-.739-.344 2.067 2.067 0 0 1-.546-.553h-.045v4.082h-2.29v-6.938c0-.848.168-1.58.503-2.198a3.532 3.532 0 0 1 1.418-1.436c.61-.348 1.325-.523 2.142-.523v.001zm0 2.003c-.354 0-.664.09-.93.27a1.626 1.626 0 0 0-.592.717 2.407 2.407 0 0 0-.206 1.017c0 .379.069.718.206 1.017.138.298.335.538.591.717.267.17.577.255.931.255.354 0 .66-.086.916-.255.257-.18.462-.428.591-.717.147-.3.221-.638.221-1.017a2.27 2.27 0 0 0-.22-1.017 1.63 1.63 0 0 0-.592-.717 1.553 1.553 0 0 0-.916-.27zm-7.542 5.846v-7.67h2.305v7.67H61.85zm1.152-8.537c-.364 0-.68-.134-.945-.403a1.32 1.32 0 0 1-.4-.958c0-.368.134-.687.4-.956.266-.28.58-.42.945-.42.364 0 .68.14.946.42.266.269.398.588.398.956 0 .37-.132.688-.398.958a1.286 1.286 0 0 1-.946.403zm-6.16 8.717c-.779 0-1.478-.174-2.099-.523a3.95 3.95 0 0 1-1.477-1.436 3.994 3.994 0 0 1-.532-2.048c0-.768.178-1.45.532-2.049a3.95 3.95 0 0 1 1.477-1.435c.621-.359 1.32-.538 2.098-.538.778 0 1.472.18 2.083.538A3.84 3.84 0 0 1 60.386 11c.365.598.547 1.281.547 2.049 0 .757-.182 1.44-.547 2.048a3.84 3.84 0 0 1-1.462 1.436c-.62.349-1.315.523-2.083.523zm0-2.018c.364 0 .679-.09.945-.27.266-.179.48-.427.62-.717.148-.3.222-.638.222-1.017 0-.37-.074-.703-.222-1.002a1.818 1.818 0 0 0-.62-.718 1.65 1.65 0 0 0-.946-.269c-.364 0-.684.09-.96.27a1.82 1.82 0 0 0-.62.717 2.23 2.23 0 0 0-.222 1.002c0 .379.074.718.221 1.017.14.29.355.538.621.717.276.18.596.27.96.27zm-11.55 4.874v-1.99h3.782a.501.501 0 0 0 .37-.148.442.442 0 0 0 .147-.345V15.74h-.044c-.187.22-.4.416-.635.583-.217.16-.463.28-.739.36a3.134 3.134 0 0 1-.9.119c-.67 0-1.271-.16-1.803-.479a3.507 3.507 0 0 1-1.241-1.36c-.295-.578-.443-1.236-.443-1.974 0-.728.152-1.39.458-1.989a3.606 3.606 0 0 1 1.374-1.435c.6-.359 1.334-.538 2.2-.538.828 0 1.542.174 2.143.523A3.51 3.51 0 0 1 51.379 11c.335.618.502 1.346.502 2.183v4.486c0 .687-.201 1.23-.605 1.63-.394.408-.94.612-1.64.612h-4.343zm2.542-5.054c.354 0 .66-.08.916-.24.253-.166.457-.398.59-.672.14-.288.211-.606.207-.927 0-.359-.068-.688-.206-.987a1.648 1.648 0 0 0-.592-.703 1.554 1.554 0 0 0-.916-.269c-.344 0-.65.085-.916.254-.256.17-.453.399-.59.688a2.23 2.23 0 0 0-.207.972c0 .35.069.668.207.957.138.279.334.503.59.673.266.17.572.254.917.254zm-8.703 2.198c-.777 0-1.477-.174-2.097-.523a3.95 3.95 0 0 1-1.477-1.436c-.355-.608-.532-1.29-.532-2.048 0-.768.177-1.45.532-2.049a3.95 3.95 0 0 1 1.477-1.435c.62-.359 1.32-.538 2.097-.538.779 0 1.473.18 2.084.538A3.84 3.84 0 0 1 42.677 11c.364.598.546 1.281.546 2.049a3.91 3.91 0 0 1-.546 2.048 3.84 3.84 0 0 1-1.462 1.436c-.62.349-1.315.523-2.084.523zm0-2.018c.365 0 .68-.09.946-.27.266-.18.48-.427.62-.717.148-.3.222-.638.222-1.017 0-.37-.074-.703-.221-1.002a1.822 1.822 0 0 0-.62-.718 1.65 1.65 0 0 0-.947-.269c-.364 0-.684.09-.96.27a1.82 1.82 0 0 0-.62.717 2.23 2.23 0 0 0-.221 1.002c0 .379.073.718.22 1.017.141.29.355.538.622.717.275.18.595.27.96.27zm-7.333 1.838c-.64 0-1.201-.144-1.684-.433a3.055 3.055 0 0 1-1.122-1.151 3.21 3.21 0 0 1-.4-1.585V6.409h2.482v7.476c0 .24.085.449.252.628a.81.81 0 0 0 .62.27h2.733v2.092h-2.88z"/></svg>