<svg xmlns="http://www.w3.org/2000/svg" width="108" height="23" fill="none"><path fill="currentColor" fill-rule="evenodd" d="M16.38 15.711a2.624 2.624 0 0 1-1.857-.77 2.635 2.635 0 0 1-.77-1.862V.972H8.5v12.107c0 4.361 3.529 7.896 7.88 7.896h5.78v-5.264h-5.78zm15.763-9.475a4.72 4.72 0 0 0-3.344 1.387 4.738 4.738 0 0 0-1.385 3.35 4.744 4.744 0 0 0 2.92 4.378 4.72 4.72 0 0 0 5.152-1.027 4.743 4.743 0 0 0 0-6.7 4.724 4.724 0 0 0-3.343-1.388zm-9.983 4.738C22.16 5.45 26.63.972 32.143.972c5.513 0 9.982 4.478 9.982 10.002 0 5.523-4.47 10.002-9.982 10.002-5.513 0-9.983-4.479-9.983-10.002zm66.725-4.738a4.725 4.725 0 0 0-3.343 1.387 4.742 4.742 0 0 0 0 6.7 4.724 4.724 0 0 0 6.687 0 4.742 4.742 0 0 0 0-6.7 4.724 4.724 0 0 0-3.344-1.387zm-9.982 4.738c0-5.524 4.47-10.002 9.982-10.002 5.513 0 9.983 4.478 9.983 10.002 0 5.523-4.47 10.002-9.983 10.002-5.513 0-9.982-4.479-9.982-10.002zM53.159.972c-5.513 0-9.983 4.478-9.983 10.002 0 5.523 4.47 10.002 9.983 10.002h14.71a9.96 9.96 0 0 0 2.971-.451l2.809 1.503 3.03-5.687a10.02 10.02 0 0 0 1.173-4.704v-.663c0-5.524-4.47-10.002-9.982-10.002H53.159zm19.44 10.002a4.742 4.742 0 0 0-1.386-3.35 4.724 4.724 0 0 0-3.343-1.388H53.159a4.72 4.72 0 0 0-3.344 1.387 4.738 4.738 0 0 0-1.385 3.35 4.744 4.744 0 0 0 2.919 4.378 4.72 4.72 0 0 0 1.81.36h14.71a4.724 4.724 0 0 0 3.331-1.374 4.742 4.742 0 0 0 1.398-3.327v-.036z" clip-rule="evenodd"/><path fill="currentColor" d="M101.5 2.288a1.319 1.319 0 0 1-1.316 1.316 1.316 1.316 0 1 1 1.316-1.316z"/></svg>