<svg xmlns="http://www.w3.org/2000/svg" width="24" height="24" fill="none"><path fill="#8E8E92" fill-rule="evenodd" d="M11.293 2.707a1 1 0 0 1 1.414 0l2.97 2.97a1 1 0 0 1 0 1.414l-2.97 2.97a1 1 0 0 1-1.414 0l-2.97-2.97a1 1 0 0 1 0-1.414l2.97-2.97zM9.737 6.384 12 4.121l2.263 2.263L12 8.647 9.737 6.384zm1.556 7.553a1 1 0 0 1 1.414 0l2.97 2.97a1 1 0 0 1 0 1.414l-2.97 2.97a1 1 0 0 1-1.414 0l-2.97-2.97a1 1 0 0 1 0-1.414l2.97-2.97zm-1.556 3.677L12 15.351l2.263 2.263L12 19.877l-2.263-2.263zm8.59-9.307a1 1 0 0 0-1.414 0l-2.97 2.97a1 1 0 0 0 0 1.414l2.97 2.97a1 1 0 0 0 1.414 0l2.97-2.97a1 1 0 0 0 0-1.414l-2.97-2.97zm-.707 1.414-2.263 2.263 2.263 2.263 2.263-2.263-2.263-2.263zM5.677 8.307a1 1 0 0 1 1.414 0l2.97 2.97a1 1 0 0 1 0 1.414l-2.97 2.97a1 1 0 0 1-1.414 0l-2.97-2.97a1 1 0 0 1 0-1.414l2.97-2.97zM4.12 11.984l2.263-2.263 2.263 2.263-2.263 2.263-2.263-2.263z" clip-rule="evenodd"/></svg>